<svg version="1.1" xmlns="http://www.w3.org/2000/svg" style="display: block;" viewBox="0 0 2048 2048" width="512" height="512" preserveAspectRatio="none">
  <path transform="translate(0,0)" fill="rgba(255, 255, 255, 1)" d="M 1651.11 76.4069 C 1783.32 70.8409 1899.19 133.662 1965.82 248.48 C 2036.01 369.425 2041.82 514.271 2007.88 647.477 C 1949.72 875.702 1748.41 1100.32 1498.11 1095.66 C 1483.48 1095.38 1462.96 1093.86 1448.72 1090.13 C 1424.08 1137.72 1403.21 1193.03 1378.89 1240 C 1407.17 1239.56 1444.79 1235.83 1473.48 1233.98 L 1667.31 1221.55 C 1704.65 1219.17 1759.13 1212.17 1794.86 1219.04 C 1833.13 1226.41 1872.97 1267.83 1905.74 1289.04 C 1913.95 1294.35 1929.65 1305.91 1934.56 1314.21 C 1939.98 1323.59 1941.54 1334.7 1938.9 1345.21 C 1933.21 1367.17 1897.91 1384.36 1879.51 1396.01 C 1855.07 1411.7 1830.55 1427.25 1805.93 1442.65 C 1829.91 1466.57 1854.1 1490.27 1878.51 1513.75 C 1888.83 1523.8 1916.46 1548.34 1921.33 1560.41 C 1925.34 1570.53 1925.15 1581.82 1920.81 1591.8 C 1915.18 1604.86 1904.23 1611.22 1891.67 1616.32 C 1845.03 1635.22 1798.83 1656.66 1752.09 1675.16 C 1775.88 1707.94 1798.58 1741.79 1822.31 1774.64 C 1826.51 1780.46 1836.28 1794.68 1837.4 1801.76 C 1842.08 1831.18 1824.42 1845.52 1798.96 1852.59 L 1726.45 1872.15 C 1663.04 1889.08 1646.15 1885.11 1589.01 1852.99 C 1570.49 1877.42 1554.39 1889.55 1528.74 1906.02 C 1509.19 1918.56 1491.3 1934.24 1469.44 1943.06 C 1455.97 1948.53 1441.52 1951.18 1426.99 1950.85 C 1396.56 1949.73 1367.78 1936.71 1346.85 1914.58 C 1317.23 1882.78 1322.26 1850.22 1353.61 1822.83 C 1331.72 1788.72 1305.96 1755.34 1283.65 1721.29 C 1271.35 1706.64 1258.93 1680.22 1245.3 1667.92 C 1225.42 1649.98 1190.03 1641.11 1165.91 1636.45 C 1193.31 1654.35 1212.12 1670.22 1229.69 1698.88 C 1254.58 1739.66 1262.24 1788.66 1250.98 1835.08 C 1239.61 1881.42 1210.35 1921.37 1169.59 1946.17 C 1128.87 1971.3 1079.71 1978.9 1033.3 1967.22 C 986.681 1955.56 946.611 1925.85 921.921 1884.63 C 892.622 1835.61 891.966 1788.67 905.672 1735.17 C 859.834 1777.63 832.686 1802.76 775.966 1833.18 C 656.669 1897.71 516.514 1911.82 386.749 1872.37 C 279.311 1841.71 179.027 1767.62 115.216 1676.36 C 36.9073 1564.92 6.292 1426.84 30.1584 1292.75 C 53.7298 1158.84 129.613 1039.82 241.064 961.933 C 353.199 883.811 491.929 853.799 626.327 878.588 C 618.121 865.345 606.39 849.209 597.416 836.204 L 546.045 761.784 L 390.188 535.951 L 340.45 463.999 C 307.107 415.729 284.227 384.419 292.903 321.964 C 298.513 281.735 320.032 245.439 352.637 221.216 C 385.544 196.866 426.803 186.645 467.271 192.817 C 500.766 197.836 531.66 213.789 555.145 238.193 C 568.678 252.364 581.941 272.966 593.309 289.449 L 645.227 364.787 L 824.68 624.788 L 1016.53 902.805 L 1073.77 985.606 C 1083.88 1000.21 1099.68 1021.79 1107.61 1036.78 C 1119.24 1058.61 1125.11 1083.05 1124.66 1107.78 C 1124.31 1131.78 1120.25 1149.35 1129.34 1173.07 C 1136.17 1190.88 1146.73 1204.68 1158.01 1219.95 C 1171.11 1223.15 1187.83 1224.17 1203 1227.82 C 1207.09 1218.1 1211.87 1208.46 1216.2 1198.82 C 1242.8 1139.49 1271.8 1080.87 1297.89 1021.33 C 1205.65 940.612 1162.73 839.19 1153.71 717.701 C 1132.36 430.125 1347.18 97.4577 1651.11 76.4069 z M 1526.19 1047.15 C 1799.83 1029.18 1996.33 720.602 1979.1 462.148 C 1966.96 280.072 1856.94 118.92 1656.57 124.412 C 1378.07 142.543 1184.69 450.15 1201.31 711.271 C 1212.84 892.351 1328.07 1056.28 1526.19 1047.15 z M 609.599 924.871 C 595.903 1020.3 612.322 1099.26 670.041 1178.47 C 673.486 1183.2 680.506 1193.41 686.082 1194.4 C 691.829 1190.17 718.04 1162.8 724.451 1156.39 L 801.37 1079.64 C 814.102 1066.95 830.982 1049.12 844.162 1037.64 C 831.512 1025.23 814.088 1009.61 832.905 991.899 C 837.447 987.615 843.498 985.298 849.74 985.451 C 862.768 985.895 876.433 1000.97 885.759 1009.77 C 952.792 1074.1 1002.2 1152.25 1027.11 1242.28 C 1028.74 1248.16 1030.56 1255.16 1032.88 1260.74 C 1051.51 1242.68 1077.6 1231.66 1102.69 1226.2 C 1089.97 1204.73 1081.55 1189.6 1077.22 1164.29 C 1071.1 1128.55 1084.75 1095.92 1066.51 1062.3 C 1057.44 1045.58 1045.78 1029.94 1034.95 1014.25 L 982.271 937.923 L 805.312 681.519 L 615.663 406.759 L 559.236 324.865 C 522.81 271.946 502.795 234.812 430.153 240.355 C 398.825 246.415 375.037 258.455 356.71 285.85 C 341.265 309.318 335.731 337.944 341.315 365.478 C 343.706 377.448 348.249 388.884 354.724 399.231 C 370.907 425.068 393.687 456.266 411.254 481.687 L 514.368 631.102 L 633.086 803.168 C 653.409 832.621 673.684 862.226 694.212 891.438 C 702.429 903.13 724.63 901.088 727.533 917.828 C 731.285 939.461 716.204 952.87 695.352 946.388 C 673.903 939.721 653.378 933.253 631.505 928.835 C 624.567 927.55 616.309 926.541 609.599 924.871 z M 567.195 1382.01 L 774.103 1588.46 L 847.026 1661.14 C 853.557 1667.61 871.829 1688.06 879.054 1691.03 C 881.853 1690.1 880.555 1690.78 882.635 1688.33 C 967.259 1586.37 1002.32 1486.7 997.472 1353.84 C 900.687 1370.35 801.279 1348.43 720.41 1292.76 C 712.455 1287.16 689.917 1268.68 684.377 1265.57 C 668.26 1280.12 651.673 1297.37 636.219 1312.83 L 567.195 1382.01 z M 68.7862 1409.91 C 176.283 1394.84 274.947 1416.45 362.376 1482.41 C 367.777 1486.48 373.126 1490.62 378.42 1494.83 C 382.237 1497.14 380.335 1496.88 384.164 1496.42 C 388.874 1491.93 393.412 1487.07 397.936 1482.38 C 430.726 1448.33 465.984 1415.97 498.63 1381.86 C 424.868 1306.54 348.19 1231.49 273.509 1156.89 L 218.117 1101.48 C 211.573 1094.94 193.05 1075.69 186.732 1071.76 C 101.661 1170.98 62.7585 1278.66 68.7862 1409.91 z M 221.776 1037.81 C 233.926 1048.62 247.391 1062.76 259.015 1074.39 L 319.856 1135.19 C 363.462 1178.69 412.216 1225.15 454.221 1269.22 L 503.993 1318.92 C 512.219 1327.12 525.038 1340.55 533.733 1347.55 C 559.962 1319 590.389 1291.23 617.441 1263.24 C 626.944 1253.41 641.63 1240.2 650.183 1230.23 C 584.748 1156.67 551.278 1060.09 557.159 961.819 C 557.998 947.006 559.674 933.956 561.914 919.256 C 541.489 919.42 523.413 918.788 502.546 919.493 C 408.692 923.251 288.123 970.673 221.776 1037.81 z M 187.687 1692.27 C 207.005 1673.25 229.598 1651.34 248.238 1631.75 L 312.531 1567.63 C 322.572 1557.58 337.375 1541.91 347.93 1533.06 C 292.394 1480.16 204.09 1451.17 128.064 1452.83 C 124.416 1452.92 120.772 1453.11 117.135 1453.41 C 102.212 1454.69 89.3195 1456.34 74.5277 1458.1 C 86.2212 1530.17 114.968 1598.4 158.372 1657.1 C 165.781 1667.11 178.85 1683.73 187.687 1692.27 z M 992.018 1305.59 C 975.689 1227.53 955.377 1171.04 906.746 1105.61 C 900.556 1097.28 885.587 1077.35 877.816 1071.7 L 718.662 1230.52 C 758.361 1264.09 796.529 1284.95 846.767 1299.12 C 900.391 1312.81 937.529 1313.04 992.018 1305.59 z M 1049.49 1561.98 C 1066.2 1569.54 1077.15 1571.27 1095.4 1574.33 C 1097.87 1557.97 1102.73 1538.15 1106.27 1521.68 L 1125.28 1433.14 L 1148.92 1322.85 C 1152.51 1306.13 1156.28 1285.39 1160.39 1269.22 C 1155.66 1269.44 1151.67 1269.7 1146.91 1269.47 C 1112.75 1271.39 1081.21 1277.26 1056.39 1303.87 C 1044.32 1316.82 1043.13 1327.97 1044.61 1344.42 C 1047.82 1380.09 1046.41 1419.1 1041.36 1454.72 C 1038.35 1474.81 1034.23 1494.71 1029 1514.33 C 1027.24 1520.99 1023.29 1533.69 1022.9 1539.7 C 1022.48 1546.14 1044.63 1559.64 1049.49 1561.98 z M 973.999 1644.94 C 986.303 1637.18 994.9 1631.7 1008.46 1626.05 C 1024.37 1619.78 1034.99 1617.46 1052.06 1614.65 C 1026.52 1606.14 1024.46 1602.83 1002.29 1589.73 C 994.538 1608.45 983.758 1627.18 973.999 1644.94 z M 1142.41 1581.73 C 1159.37 1585.52 1176.37 1589.17 1193.4 1592.67 C 1199.79 1558.65 1208.44 1521.7 1215.75 1487.6 L 1258.45 1288.56 C 1249.72 1287.11 1215.52 1280.69 1208.79 1277.67 C 1203.56 1291.43 1194.79 1338.23 1191.24 1354.93 L 1158.97 1505.61 C 1154.65 1525.76 1147.77 1563.36 1142.41 1581.73 z M 1251.17 1238.42 C 1279.67 1243.92 1284.22 1246.74 1312.97 1244.54 L 1324.41 1243.65 C 1347.93 1189.01 1378.37 1131.98 1400.95 1077.51 C 1378.5 1071.12 1358.36 1059.98 1337.73 1049.37 C 1334.31 1058.58 1329.85 1067.24 1325.84 1076.18 C 1301.51 1130.33 1274.65 1183.94 1251.17 1238.42 z M 1394.09 1795.72 C 1400.34 1791.41 1411.33 1783.31 1417.5 1779.77 C 1422.65 1776.3 1427.77 1772.65 1433.25 1769.74 C 1424.21 1763.09 1352.24 1723.21 1342 1719.75 C 1345.31 1726.55 1359.35 1746.65 1364.56 1753.93 C 1373.43 1766.34 1384.73 1784.14 1394.09 1795.72 z M 532.894 1416.74 C 518.139 1430.17 502.394 1445.72 488.628 1460.16 C 465.401 1484.54 438.609 1508.1 416.333 1533.11 C 425.883 1542.67 438.109 1559.36 445.781 1570.77 C 487.559 1633.03 509.932 1706.28 510.07 1781.26 C 510.069 1800.51 508.511 1826.02 504.676 1844.82 C 566.914 1847.81 637.719 1840.48 695.729 1816.58 C 743.059 1800.08 808.118 1761.41 844.284 1726.52 C 759.857 1640.31 672.474 1556.45 587.733 1470.48 C 581.03 1463.68 538.451 1419.73 532.894 1416.74 z M 1267.32 1477.53 L 1574.92 1589.56 L 1665.11 1622.49 C 1676.47 1626.63 1702.02 1636.63 1713.16 1639.11 C 1747.76 1624.76 1782.28 1610.2 1816.71 1595.45 C 1833.95 1588.51 1852.65 1579.69 1869.92 1573.75 C 1854.53 1556.14 1827.53 1531.51 1810.19 1514.4 C 1796.64 1501.04 1771.77 1475.47 1758.09 1464.08 C 1719.43 1462.44 1681.78 1458.99 1643.26 1456.32 L 1415.23 1439.66 L 1313.05 1432.38 C 1303.63 1431.65 1285.73 1431.49 1277.61 1429.76 C 1274.04 1444.92 1270.04 1462.25 1267.32 1477.53 z M 457.347 1840 C 459.29 1821.04 461.763 1809.44 462.175 1789.52 C 464.437 1712.69 439.381 1637.54 391.463 1577.44 C 388.936 1574.32 384.908 1568.86 381.257 1567.75 C 327.627 1620.13 275.158 1674 221.792 1726.67 C 256.404 1756.9 296.012 1784.9 338.266 1803.4 C 364.548 1814.9 388.057 1823.94 416.065 1831.07 C 429.717 1834.54 444.35 1836.63 457.347 1840 z M 1479.43 1795.9 C 1465.75 1804.94 1382.7 1860.64 1376.63 1868.3 C 1373.46 1884.46 1405.57 1899.15 1419.02 1901.18 C 1426.06 1902.17 1433.2 1902.16 1440.24 1901.16 C 1459.52 1897.33 1474.82 1884.59 1490.78 1873.6 C 1510.87 1859.75 1530.34 1848.42 1546.27 1829.7 C 1535.28 1824.16 1486.49 1795.83 1479.43 1795.9 z M 1756.14 1264.44 L 1442.46 1284.67 L 1361.13 1290.06 C 1345.89 1291.18 1321.85 1293.43 1306.83 1293.51 C 1299.96 1322.76 1294.24 1352.72 1287.62 1382.08 C 1303.88 1382.34 1323.47 1384.43 1340.1 1385.63 L 1438.75 1392.93 L 1641.61 1407.88 C 1674.73 1410.32 1708.85 1414.87 1742.01 1414.7 C 1748.28 1414.67 1755.25 1414.02 1761.28 1412.22 C 1771 1409.32 1872.96 1343.96 1886.23 1334.18 C 1865.39 1319.43 1844.14 1303.35 1823.7 1288.01 C 1800.1 1270.29 1786.09 1262.9 1756.14 1264.44 z M 1062.22 1661.89 C 990.001 1669.67 937.768 1734.54 945.582 1806.76 C 953.396 1878.98 1018.3 1931.18 1090.51 1923.32 C 1162.67 1915.47 1214.82 1850.63 1207.01 1778.47 C 1199.2 1706.31 1134.39 1654.13 1062.22 1661.89 z M 1256.82 1525.21 C 1251.57 1552.13 1243.68 1582.46 1239.23 1608.91 L 1506.57 1753.72 C 1530.36 1766.62 1640.7 1829.51 1657.78 1832.25 C 1689.48 1837.32 1721.31 1822.02 1751.75 1815.16 C 1763.53 1811.85 1773.09 1809.45 1785.05 1806.77 C 1776.13 1791.22 1709.11 1694.73 1698.54 1687.36 C 1683.83 1677.11 1631.83 1660.81 1611.17 1653.32 L 1430.79 1587.94 L 1315.88 1546.27 C 1299.42 1540.3 1273.26 1529.21 1256.82 1525.21 z"/>
  <path transform="translate(0,0)" fill="rgba(255, 255, 255, 1)" d="M 1635.53 182.367 C 1702.08 178.578 1771.74 196.6 1821.97 240.337 C 1994.03 390.161 1947.65 673.791 1815.39 833.14 C 1743.26 920.047 1655.08 977.633 1544.25 989.386 C 1481.8 995.098 1412.7 974.547 1363.52 935.427 C 1261.69 854.765 1232.34 712.84 1252.75 589.571 C 1285.21 393.463 1428.88 205.583 1635.53 182.367 z M 1610.79 856.912 C 1622.06 829.793 1636.05 803.309 1647.5 776.631 C 1614.96 761.155 1582.25 746.042 1549.37 731.293 C 1538.32 755.342 1524.39 788.221 1512.39 811.012 C 1533.88 821.334 1555.49 831.393 1577.22 841.189 C 1586.63 845.5 1602.17 852.094 1610.79 856.912 z M 1683.79 439.445 C 1714.73 454.545 1751.23 471.393 1782.84 485.131 C 1785.82 476.636 1789.9 467.477 1793.86 459.368 C 1802.52 441.652 1810.16 422.737 1819.21 405.285 C 1793.62 392.251 1766.66 381.203 1740.73 368.809 C 1734.37 365.771 1727.42 362.988 1721.31 359.547 C 1709.07 384.585 1696.42 416.106 1683.79 439.445 z M 1484.71 498.74 C 1508.36 507.91 1533.26 521.365 1556.66 531.488 C 1562.97 534.213 1577.12 541.481 1583.13 543.346 L 1606.5 493.144 C 1610.36 484.802 1616.95 471.525 1619.44 463.163 L 1557.35 434.439 C 1547.44 429.868 1531.43 422.076 1521.64 418.426 C 1512.81 440.403 1501.27 462.09 1491.81 483.868 C 1489.71 488.687 1487.21 494.185 1484.71 498.74 z M 1569.29 687.281 L 1634.24 717.307 C 1644.21 721.913 1658.12 728.829 1668.02 732.722 C 1677.56 709.139 1693.67 676.095 1704.75 652.784 C 1674.29 637.978 1637.37 620.716 1606.27 607.524 C 1597.63 628.333 1587.3 648.729 1578.09 669.307 C 1575.47 675.14 1572.48 681.811 1569.29 687.281 z M 1542.14 374.905 C 1571.09 387.147 1599.33 401.477 1628.14 414.084 C 1632.15 415.836 1636.63 418.018 1640.68 419.502 C 1650.99 393.552 1667.01 365.312 1677.15 339.498 C 1661.72 332.511 1590.26 297.219 1578.71 295.384 L 1542.14 374.905 z M 1427.73 622.737 C 1451.23 631.675 1476.46 645.5 1499.87 655.484 C 1505.31 657.804 1521.11 665.647 1526.23 666.777 C 1530.43 659.307 1538.54 640.521 1542.32 632.073 C 1548.11 619.122 1557.7 600.243 1562.44 587.262 C 1533.76 573.72 1494.15 554.214 1465.13 542.36 C 1451.66 568.419 1440.56 596.663 1427.73 622.737 z M 1626.52 563.449 C 1657.15 577.622 1694.35 595.891 1725.18 608.536 L 1761.97 528.706 L 1699.44 499.821 C 1689.95 495.445 1673.3 487.246 1663.9 483.897 C 1652.04 507.262 1638.4 542.74 1626.52 563.449 z M 1297.43 615.725 C 1295.74 634.603 1291.71 692.231 1299.31 712.049 C 1300.35 714.755 1321.77 723.506 1327.23 725.712 C 1330.77 717.945 1334.66 708.831 1338.47 701.31 C 1344.08 688.949 1360.28 656.028 1363.39 645.2 C 1341.21 635.756 1319.55 624.817 1297.43 615.725 z M 1492.14 855.275 L 1469.34 904.907 C 1466.3 911.513 1460.25 925.486 1456.62 931.221 C 1490.96 941.23 1519.2 944.374 1555.16 939.888 C 1561.83 939.03 1566.44 938.069 1573.01 936.6 C 1579.27 924.955 1584.72 912.497 1590.24 900.453 C 1568.94 890.318 1547.56 880.348 1526.1 870.544 C 1517.6 866.635 1500.6 858.332 1492.14 855.275 z M 1440.15 326.855 C 1449.57 332.381 1461.58 337.589 1471.63 342.261 C 1480.35 346.147 1490.33 350.887 1499.13 354.311 C 1507.52 331.834 1529.09 293.61 1535.11 273.526 C 1529.47 271.43 1523.65 268.634 1517.82 268.776 C 1484.55 288.747 1468.82 300.936 1440.15 326.855 z M 1846.25 345.069 C 1833.09 318.517 1793.85 271.212 1766.34 261.159 C 1760.88 274.209 1747.6 303.924 1740.81 315.636 L 1828.1 356.012 C 1832.31 357.863 1835.54 359.35 1839.59 361.534 L 1846.25 345.069 z M 1705.04 874.262 C 1723.51 859.545 1741.21 844.549 1756.9 826.767 C 1748.01 822.648 1697.09 798.103 1691.09 797.406 C 1680.23 820.078 1663.43 853.999 1654.52 876.899 C 1682.36 889.721 1680.61 893.591 1705.04 874.262 z M 1607.36 235.308 C 1604.15 240.801 1602.03 245.085 1599.27 250.831 C 1625.1 262.384 1655.31 275.795 1680.61 288.227 C 1686.13 290.587 1692.83 293.666 1698.36 295.707 C 1703.08 281.723 1716.53 254.605 1723.26 240.278 C 1696.3 232.383 1679.2 229.92 1650.86 230.43 C 1633.83 231.385 1623.98 231.604 1607.36 235.308 z M 1768.76 628.935 C 1794.92 641.103 1821.14 653.125 1847.43 665 L 1855.05 669.07 C 1859.25 656.723 1881.13 592.614 1876.9 582.218 C 1871.32 578.348 1856.73 572.168 1849.98 569.086 C 1835.19 562.286 1820.37 555.571 1805.51 548.941 L 1768.76 628.935 z M 1749.14 672.642 C 1742.55 684.047 1735.55 700.084 1730.02 712.3 C 1724.08 725.398 1717.05 739.824 1711.52 752.972 C 1722.87 757.992 1784.7 787.741 1790.16 787.496 C 1792.57 785.411 1792.56 784.939 1793.96 782.135 C 1806.51 764.826 1826.95 732.77 1835.57 713.198 C 1808.94 699.304 1773.6 686.177 1749.14 672.642 z M 1407.37 666.545 L 1370.55 746.699 C 1399.93 757.632 1438.99 778.17 1468.96 791.114 C 1480.99 764.693 1494.02 737.681 1505.55 711.211 C 1485.14 701.562 1464.66 692.051 1444.11 682.678 C 1434.26 678.143 1416.97 669.648 1407.37 666.545 z M 1862.56 425.433 C 1851.13 450.202 1835.83 480.763 1826.03 505.545 C 1837.75 510.278 1848.87 515.59 1860.31 520.944 L 1885.04 532.21 C 1885.57 510.715 1886.56 454.221 1876.56 432.247 C 1875.69 430.347 1865.47 426.281 1862.56 425.433 z M 1421.39 521.616 C 1395.59 511.889 1360.16 493.629 1333.71 481.943 C 1324.22 505.843 1315.37 529.211 1309.29 554.233 C 1308.31 558.256 1307.16 562.788 1305.78 566.66 C 1317.33 570.514 1379.16 601.633 1384.39 600.703 C 1385.94 598.575 1385.64 599.161 1386.71 596.724 L 1421.39 521.616 z M 1418.99 898.816 C 1427.33 881.231 1441.75 852.144 1448.23 834.625 C 1426.53 825.23 1405.27 814.78 1383.77 804.988 C 1375 800.996 1358.64 792.911 1349.86 790.343 C 1345.2 802.477 1339.06 814.13 1333.91 826.093 C 1349.19 858.273 1383.1 893.982 1414.31 911.185 C 1415.82 907.021 1417.25 902.893 1418.99 898.816 z M 1405.35 364.925 C 1390.54 382.856 1377.31 400.81 1365.52 420.884 C 1362.12 426.684 1358.57 433.228 1354.91 438.764 C 1380.71 449.984 1407.08 462.541 1432.69 474.359 L 1442.15 478.314 C 1450.22 454.853 1468.07 422.317 1478.24 397.594 C 1458.21 390.709 1426.59 373.697 1405.35 364.925 z"/>
  <path transform="translate(0,0)" fill="rgba(255, 253, 253, 1)" d="M 448.572 392.2 C 457.994 391.896 466.783 393.053 472.809 401.532 C 483.983 417.253 494.494 433.589 505.182 449.661 L 571.127 548.711 L 621.858 624.934 C 630.075 637.283 641.12 652.065 647.441 665.112 C 653.693 678.015 641.701 691.842 629.978 696.22 C 625.213 696.482 619.569 696.69 615.276 694.664 C 610.799 692.55 606.401 688.505 603.638 684.451 C 594.352 670.825 585.212 656.872 576.084 643.149 L 520.575 559.72 L 460.37 469.361 C 450.972 455.265 437.557 436.665 430.192 421.539 C 428.67 418.412 430.044 408.045 432.39 404.387 C 437.206 396.878 440.298 394.761 448.572 392.2 z"/>
  <path transform="translate(0,0)" fill="rgba(255, 255, 255, 1)" d="M 400.968 324.29 C 432.531 320.433 453.067 360.953 419.254 378.22 C 389.876 383.218 367.656 339.432 400.968 324.29 z"/>
</svg>